<?xml version="1.0" encoding="UTF-8" standalone="no"?>
<!DOCTYPE svg PUBLIC "-//W3C//DTD SVG 1.1//EN"
 "http://www.w3.org/Graphics/SVG/1.1/DTD/svg11.dtd">
<!-- Generated by graphviz version 2.46.0 (0)
 -->
<!-- Pages: 1 -->
<svg width="2565pt" height="620pt"
 viewBox="0.00 0.00 2564.62 620.00" xmlns="http://www.w3.org/2000/svg" xmlns:xlink="http://www.w3.org/1999/xlink">
<g id="graph0" class="graph" transform="scale(1 1) rotate(0) translate(4 616)">
<polygon fill="white" stroke="transparent" points="-4,4 -4,-616 2560.62,-616 2560.62,4 -4,4"/>
<!-- [root] azurerm_dns_a_record.terraform_demo_dns_record (expand) -->
<g id="node1" class="node">
<title>[root] azurerm_dns_a_record.terraform_demo_dns_record (expand)</title>
<polygon fill="none" stroke="black" points="964.13,-468 664.13,-468 664.13,-432 964.13,-432 964.13,-468"/>
<text text-anchor="middle" x="814.13" y="-446.3" font-family="Times,serif" font-size="14.00">azurerm_dns_a_record.terraform_demo_dns_record</text>
</g>
<!-- [root] azurerm_public_ip.terraform_demo_public_ip (expand) -->
<g id="node6" class="node">
<title>[root] azurerm_public_ip.terraform_demo_public_ip (expand)</title>
<polygon fill="none" stroke="black" points="1129.63,-252 860.63,-252 860.63,-216 1129.63,-216 1129.63,-252"/>
<text text-anchor="middle" x="995.13" y="-230.3" font-family="Times,serif" font-size="14.00">azurerm_public_ip.terraform_demo_public_ip</text>
</g>
<!-- [root] azurerm_dns_a_record.terraform_demo_dns_record (expand)&#45;&gt;[root] azurerm_public_ip.terraform_demo_public_ip (expand) -->
<g id="edge1" class="edge">
<title>[root] azurerm_dns_a_record.terraform_demo_dns_record (expand)&#45;&gt;[root] azurerm_public_ip.terraform_demo_public_ip (expand)</title>
<path fill="none" stroke="black" d="M828.63,-431.85C860.54,-394.13 936.92,-303.83 974.09,-259.88"/>
<polygon fill="black" stroke="black" points="976.77,-262.13 980.55,-252.23 971.42,-257.61 976.77,-262.13"/>
</g>
<!-- [root] data.azurerm_dns_zone.terraform_demo_dns_zone (expand) -->
<g id="node12" class="node">
<title>[root] data.azurerm_dns_zone.terraform_demo_dns_zone (expand)</title>
<polygon fill="none" stroke="black" points="1009.13,-108 713.13,-108 713.13,-72 1009.13,-72 1009.13,-108"/>
<text text-anchor="middle" x="861.13" y="-86.3" font-family="Times,serif" font-size="14.00">data.azurerm_dns_zone.terraform_demo_dns_zone</text>
</g>
<!-- [root] azurerm_dns_a_record.terraform_demo_dns_record (expand)&#45;&gt;[root] data.azurerm_dns_zone.terraform_demo_dns_zone (expand) -->
<g id="edge2" class="edge">
<title>[root] azurerm_dns_a_record.terraform_demo_dns_record (expand)&#45;&gt;[root] data.azurerm_dns_zone.terraform_demo_dns_zone (expand)</title>
<path fill="none" stroke="black" d="M695.13,-431.97C624.31,-414.34 548.13,-378.72 548.13,-307 548.13,-307 548.13,-307 548.13,-233 548.13,-188.47 558.54,-170.76 594.13,-144 613.39,-129.52 659.67,-118.16 708.39,-109.74"/>
<polygon fill="black" stroke="black" points="709.2,-113.15 718.48,-108.04 708.04,-106.25 709.2,-113.15"/>
</g>
<!-- [root] azurerm_linux_virtual_machine.terraform_demo_vm (expand) -->
<g id="node2" class="node">
<title>[root] azurerm_linux_virtual_machine.terraform_demo_vm (expand)</title>
<polygon fill="none" stroke="black" points="1792.13,-396 1484.13,-396 1484.13,-360 1792.13,-360 1792.13,-396"/>
<text text-anchor="middle" x="1638.13" y="-374.3" font-family="Times,serif" font-size="14.00">azurerm_linux_virtual_machine.terraform_demo_vm</text>
</g>
<!-- [root] azurerm_network_interface.terraform_demo_network_interface_card (expand) -->
<g id="node3" class="node">
<title>[root] azurerm_network_interface.terraform_demo_network_interface_card (expand)</title>
<polygon fill="none" stroke="black" points="1941.13,-324 1547.13,-324 1547.13,-288 1941.13,-288 1941.13,-324"/>
<text text-anchor="middle" x="1744.13" y="-302.3" font-family="Times,serif" font-size="14.00">azurerm_network_interface.terraform_demo_network_interface_card</text>
</g>
<!-- [root] azurerm_linux_virtual_machine.terraform_demo_vm (expand)&#45;&gt;[root] azurerm_network_interface.terraform_demo_network_interface_card (expand) -->
<g id="edge3" class="edge">
<title>[root] azurerm_linux_virtual_machine.terraform_demo_vm (expand)&#45;&gt;[root] azurerm_network_interface.terraform_demo_network_interface_card (expand)</title>
<path fill="none" stroke="black" d="M1664.06,-359.88C1677.79,-350.81 1694.84,-339.55 1709.66,-329.76"/>
<polygon fill="black" stroke="black" points="1711.68,-332.62 1718.1,-324.19 1707.83,-326.78 1711.68,-332.62"/>
</g>
<!-- [root] azurerm_storage_account.terraform_demo_storage_account (expand) -->
<g id="node9" class="node">
<title>[root] azurerm_storage_account.terraform_demo_storage_account (expand)</title>
<polygon fill="none" stroke="black" points="1528.63,-324 1185.63,-324 1185.63,-288 1528.63,-288 1528.63,-324"/>
<text text-anchor="middle" x="1357.13" y="-302.3" font-family="Times,serif" font-size="14.00">azurerm_storage_account.terraform_demo_storage_account</text>
</g>
<!-- [root] azurerm_linux_virtual_machine.terraform_demo_vm (expand)&#45;&gt;[root] azurerm_storage_account.terraform_demo_storage_account (expand) -->
<g id="edge4" class="edge">
<title>[root] azurerm_linux_virtual_machine.terraform_demo_vm (expand)&#45;&gt;[root] azurerm_storage_account.terraform_demo_storage_account (expand)</title>
<path fill="none" stroke="black" d="M1569.75,-359.97C1529.29,-349.89 1477.89,-337.08 1435.76,-326.59"/>
<polygon fill="black" stroke="black" points="1436.37,-323.13 1425.82,-324.11 1434.67,-329.92 1436.37,-323.13"/>
</g>
<!-- [root] tls_private_key.terraform_demo_ssh_key (expand) -->
<g id="node21" class="node">
<title>[root] tls_private_key.terraform_demo_ssh_key (expand)</title>
<polygon fill="none" stroke="black" points="2346.63,-324 2105.63,-324 2105.63,-288 2346.63,-288 2346.63,-324"/>
<text text-anchor="middle" x="2226.13" y="-302.3" font-family="Times,serif" font-size="14.00">tls_private_key.terraform_demo_ssh_key</text>
</g>
<!-- [root] azurerm_linux_virtual_machine.terraform_demo_vm (expand)&#45;&gt;[root] tls_private_key.terraform_demo_ssh_key (expand) -->
<g id="edge5" class="edge">
<title>[root] azurerm_linux_virtual_machine.terraform_demo_vm (expand)&#45;&gt;[root] tls_private_key.terraform_demo_ssh_key (expand)</title>
<path fill="none" stroke="black" d="M1781.22,-359.97C1876.99,-348.56 2002.08,-333.67 2095.22,-322.58"/>
<polygon fill="black" stroke="black" points="2095.75,-326.05 2105.27,-321.39 2094.93,-319.09 2095.75,-326.05"/>
</g>
<!-- [root] azurerm_network_interface.terraform_demo_network_interface_card (expand)&#45;&gt;[root] azurerm_public_ip.terraform_demo_public_ip (expand) -->
<g id="edge6" class="edge">
<title>[root] azurerm_network_interface.terraform_demo_network_interface_card (expand)&#45;&gt;[root] azurerm_public_ip.terraform_demo_public_ip (expand)</title>
<path fill="none" stroke="black" d="M1561.86,-287.97C1432.14,-275.84 1260.19,-259.77 1139.85,-248.53"/>
<polygon fill="black" stroke="black" points="1140.11,-245.03 1129.83,-247.59 1139.46,-252 1140.11,-245.03"/>
</g>
<!-- [root] azurerm_subnet.terraform_demo_subnet (expand) -->
<g id="node10" class="node">
<title>[root] azurerm_subnet.terraform_demo_subnet (expand)</title>
<polygon fill="none" stroke="black" points="1891.13,-252 1655.13,-252 1655.13,-216 1891.13,-216 1891.13,-252"/>
<text text-anchor="middle" x="1773.13" y="-230.3" font-family="Times,serif" font-size="14.00">azurerm_subnet.terraform_demo_subnet</text>
</g>
<!-- [root] azurerm_network_interface.terraform_demo_network_interface_card (expand)&#45;&gt;[root] azurerm_subnet.terraform_demo_subnet (expand) -->
<g id="edge7" class="edge">
<title>[root] azurerm_network_interface.terraform_demo_network_interface_card (expand)&#45;&gt;[root] azurerm_subnet.terraform_demo_subnet (expand)</title>
<path fill="none" stroke="black" d="M1751.3,-287.7C1754.56,-279.81 1758.5,-270.3 1762.13,-261.55"/>
<polygon fill="black" stroke="black" points="1765.45,-262.68 1766.04,-252.1 1758.98,-260 1765.45,-262.68"/>
</g>
<!-- [root] azurerm_network_interface_security_group_association.terraform_demo_sg_nic_link (expand) -->
<g id="node4" class="node">
<title>[root] azurerm_network_interface_security_group_association.terraform_demo_sg_nic_link (expand)</title>
<polygon fill="none" stroke="black" points="1465.63,-468 982.63,-468 982.63,-432 1465.63,-432 1465.63,-468"/>
<text text-anchor="middle" x="1224.13" y="-446.3" font-family="Times,serif" font-size="14.00">azurerm_network_interface_security_group_association.terraform_demo_sg_nic_link</text>
</g>
<!-- [root] azurerm_network_interface_security_group_association.terraform_demo_sg_nic_link (expand)&#45;&gt;[root] azurerm_network_interface.terraform_demo_network_interface_card (expand) -->
<g id="edge8" class="edge">
<title>[root] azurerm_network_interface_security_group_association.terraform_demo_sg_nic_link (expand)&#45;&gt;[root] azurerm_network_interface.terraform_demo_network_interface_card (expand)</title>
<path fill="none" stroke="black" d="M1266.16,-431.96C1315.53,-412.45 1400.22,-380.54 1475.13,-360 1524.95,-346.34 1580.87,-334.73 1628.77,-325.9"/>
<polygon fill="black" stroke="black" points="1629.66,-329.3 1638.87,-324.06 1628.4,-322.41 1629.66,-329.3"/>
</g>
<!-- [root] azurerm_network_security_group.terraform_demo_network_security_group (expand) -->
<g id="node5" class="node">
<title>[root] azurerm_network_security_group.terraform_demo_network_security_group (expand)</title>
<polygon fill="none" stroke="black" points="1645.63,-180 1214.63,-180 1214.63,-144 1645.63,-144 1645.63,-180"/>
<text text-anchor="middle" x="1430.13" y="-158.3" font-family="Times,serif" font-size="14.00">azurerm_network_security_group.terraform_demo_network_security_group</text>
</g>
<!-- [root] azurerm_network_interface_security_group_association.terraform_demo_sg_nic_link (expand)&#45;&gt;[root] azurerm_network_security_group.terraform_demo_network_security_group (expand) -->
<g id="edge9" class="edge">
<title>[root] azurerm_network_interface_security_group_association.terraform_demo_sg_nic_link (expand)&#45;&gt;[root] azurerm_network_security_group.terraform_demo_network_security_group (expand)</title>
<path fill="none" stroke="black" d="M1210.36,-431.8C1187.47,-400.95 1146.85,-335.05 1176.13,-288 1210.99,-231.99 1279.13,-200.35 1336.06,-182.92"/>
<polygon fill="black" stroke="black" points="1337.22,-186.23 1345.82,-180.04 1335.24,-179.52 1337.22,-186.23"/>
</g>
<!-- [root] azurerm_resource_group.terraform_demo_resource_group (expand) -->
<g id="node7" class="node">
<title>[root] azurerm_resource_group.terraform_demo_resource_group (expand)</title>
<polygon fill="none" stroke="black" points="1510.63,-108 1175.63,-108 1175.63,-72 1510.63,-72 1510.63,-108"/>
<text text-anchor="middle" x="1343.13" y="-86.3" font-family="Times,serif" font-size="14.00">azurerm_resource_group.terraform_demo_resource_group</text>
</g>
<!-- [root] azurerm_network_security_group.terraform_demo_network_security_group (expand)&#45;&gt;[root] azurerm_resource_group.terraform_demo_resource_group (expand) -->
<g id="edge10" class="edge">
<title>[root] azurerm_network_security_group.terraform_demo_network_security_group (expand)&#45;&gt;[root] azurerm_resource_group.terraform_demo_resource_group (expand)</title>
<path fill="none" stroke="black" d="M1408.62,-143.7C1397.67,-134.88 1384.18,-124.03 1372.3,-114.47"/>
<polygon fill="black" stroke="black" points="1374.37,-111.65 1364.39,-108.1 1369.98,-117.1 1374.37,-111.65"/>
</g>
<!-- [root] azurerm_public_ip.terraform_demo_public_ip (expand)&#45;&gt;[root] azurerm_resource_group.terraform_demo_resource_group (expand) -->
<g id="edge11" class="edge">
<title>[root] azurerm_public_ip.terraform_demo_public_ip (expand)&#45;&gt;[root] azurerm_resource_group.terraform_demo_resource_group (expand)</title>
<path fill="none" stroke="black" d="M1077.09,-215.99C1106.71,-207.75 1139.61,-196.07 1167.13,-180 1187.22,-168.27 1185.45,-156.41 1205.13,-144 1226.31,-130.65 1251.39,-119.77 1274.32,-111.43"/>
<polygon fill="black" stroke="black" points="1275.74,-114.64 1284,-108.01 1273.4,-108.04 1275.74,-114.64"/>
</g>
<!-- [root] provider[&quot;registry.terraform.io/hashicorp/azurerm&quot;] -->
<g id="node17" class="node">
<title>[root] provider[&quot;registry.terraform.io/hashicorp/azurerm&quot;]</title>
<polygon fill="none" stroke="black" points="1146.13,-36 871.47,-18 1146.13,0 1420.78,-18 1146.13,-36"/>
<text text-anchor="middle" x="1146.13" y="-14.3" font-family="Times,serif" font-size="14.00">provider[&quot;registry.terraform.io/hashicorp/azurerm&quot;]</text>
</g>
<!-- [root] azurerm_resource_group.terraform_demo_resource_group (expand)&#45;&gt;[root] provider[&quot;registry.terraform.io/hashicorp/azurerm&quot;] -->
<g id="edge13" class="edge">
<title>[root] azurerm_resource_group.terraform_demo_resource_group (expand)&#45;&gt;[root] provider[&quot;registry.terraform.io/hashicorp/azurerm&quot;]</title>
<path fill="none" stroke="black" d="M1295.19,-71.97C1265.18,-61.3 1226.58,-47.59 1196.18,-36.79"/>
<polygon fill="black" stroke="black" points="1197.22,-33.44 1186.62,-33.39 1194.87,-40.03 1197.22,-33.44"/>
</g>
<!-- [root] local.tags (expand) -->
<g id="node23" class="node">
<title>[root] local.tags (expand)</title>
<ellipse fill="none" stroke="black" cx="1540.13" cy="-18" rx="100.98" ry="18"/>
<text text-anchor="middle" x="1540.13" y="-14.3" font-family="Times,serif" font-size="14.00">[root] local.tags (expand)</text>
</g>
<!-- [root] azurerm_resource_group.terraform_demo_resource_group (expand)&#45;&gt;[root] local.tags (expand) -->
<g id="edge12" class="edge">
<title>[root] azurerm_resource_group.terraform_demo_resource_group (expand)&#45;&gt;[root] local.tags (expand)</title>
<path fill="none" stroke="black" d="M1391.07,-71.97C1420.25,-61.59 1457.57,-48.34 1487.56,-37.68"/>
<polygon fill="black" stroke="black" points="1488.77,-40.96 1497.02,-34.32 1486.43,-34.37 1488.77,-40.96"/>
</g>
<!-- [root] azurerm_role_assignment.terraform_role_assignment (expand) -->
<g id="node8" class="node">
<title>[root] azurerm_role_assignment.terraform_role_assignment (expand)</title>
<polygon fill="none" stroke="black" points="1792.13,-468 1484.13,-468 1484.13,-432 1792.13,-432 1792.13,-468"/>
<text text-anchor="middle" x="1638.13" y="-446.3" font-family="Times,serif" font-size="14.00">azurerm_role_assignment.terraform_role_assignment</text>
</g>
<!-- [root] azurerm_role_assignment.terraform_role_assignment (expand)&#45;&gt;[root] azurerm_linux_virtual_machine.terraform_demo_vm (expand) -->
<g id="edge14" class="edge">
<title>[root] azurerm_role_assignment.terraform_role_assignment (expand)&#45;&gt;[root] azurerm_linux_virtual_machine.terraform_demo_vm (expand)</title>
<path fill="none" stroke="black" d="M1638.13,-431.7C1638.13,-423.98 1638.13,-414.71 1638.13,-406.11"/>
<polygon fill="black" stroke="black" points="1641.63,-406.1 1638.13,-396.1 1634.63,-406.1 1641.63,-406.1"/>
</g>
<!-- [root] data.azurerm_role_definition.contributor (expand) -->
<g id="node13" class="node">
<title>[root] data.azurerm_role_definition.contributor (expand)</title>
<polygon fill="none" stroke="black" points="2235.13,-108 1997.13,-108 1997.13,-72 2235.13,-72 2235.13,-108"/>
<text text-anchor="middle" x="2116.13" y="-86.3" font-family="Times,serif" font-size="14.00">data.azurerm_role_definition.contributor</text>
</g>
<!-- [root] azurerm_role_assignment.terraform_role_assignment (expand)&#45;&gt;[root] data.azurerm_role_definition.contributor (expand) -->
<g id="edge15" class="edge">
<title>[root] azurerm_role_assignment.terraform_role_assignment (expand)&#45;&gt;[root] data.azurerm_role_definition.contributor (expand)</title>
<path fill="none" stroke="black" d="M1790.44,-431.98C1893.45,-419.8 2012.33,-404.18 2021.13,-396 2050.75,-368.46 2040.13,-347.45 2040.13,-307 2040.13,-307 2040.13,-307 2040.13,-233 2040.13,-187.64 2070.65,-142.75 2093,-115.95"/>
<polygon fill="black" stroke="black" points="2095.77,-118.09 2099.64,-108.23 2090.47,-113.53 2095.77,-118.09"/>
</g>
<!-- [root] data.azurerm_subscription.current (expand) -->
<g id="node15" class="node">
<title>[root] data.azurerm_subscription.current (expand)</title>
<polygon fill="none" stroke="black" points="2012.13,-396 1810.13,-396 1810.13,-360 2012.13,-360 2012.13,-396"/>
<text text-anchor="middle" x="1911.13" y="-374.3" font-family="Times,serif" font-size="14.00">data.azurerm_subscription.current</text>
</g>
<!-- [root] azurerm_role_assignment.terraform_role_assignment (expand)&#45;&gt;[root] data.azurerm_subscription.current (expand) -->
<g id="edge16" class="edge">
<title>[root] azurerm_role_assignment.terraform_role_assignment (expand)&#45;&gt;[root] data.azurerm_subscription.current (expand)</title>
<path fill="none" stroke="black" d="M1704.56,-431.97C1743.79,-421.91 1793.6,-409.14 1834.48,-398.65"/>
<polygon fill="black" stroke="black" points="1835.58,-401.98 1844.4,-396.11 1833.84,-395.2 1835.58,-401.98"/>
</g>
<!-- [root] random_id.randomId (expand) -->
<g id="node20" class="node">
<title>[root] random_id.randomId (expand)</title>
<polygon fill="none" stroke="black" points="776.63,-252 643.63,-252 643.63,-216 776.63,-216 776.63,-252"/>
<text text-anchor="middle" x="710.13" y="-230.3" font-family="Times,serif" font-size="14.00">random_id.randomId</text>
</g>
<!-- [root] azurerm_storage_account.terraform_demo_storage_account (expand)&#45;&gt;[root] random_id.randomId (expand) -->
<g id="edge17" class="edge">
<title>[root] azurerm_storage_account.terraform_demo_storage_account (expand)&#45;&gt;[root] random_id.randomId (expand)</title>
<path fill="none" stroke="black" d="M1188.39,-287.99C1089.98,-277.91 963.48,-264.66 851.13,-252 830.28,-249.65 807.72,-246.99 786.88,-244.47"/>
<polygon fill="black" stroke="black" points="787.16,-240.98 776.81,-243.26 786.32,-247.93 787.16,-240.98"/>
</g>
<!-- [root] azurerm_virtual_network.terraform_demo_vnet (expand) -->
<g id="node11" class="node">
<title>[root] azurerm_virtual_network.terraform_demo_vnet (expand)</title>
<polygon fill="none" stroke="black" points="1940.63,-180 1663.63,-180 1663.63,-144 1940.63,-144 1940.63,-180"/>
<text text-anchor="middle" x="1802.13" y="-158.3" font-family="Times,serif" font-size="14.00">azurerm_virtual_network.terraform_demo_vnet</text>
</g>
<!-- [root] azurerm_subnet.terraform_demo_subnet (expand)&#45;&gt;[root] azurerm_virtual_network.terraform_demo_vnet (expand) -->
<g id="edge18" class="edge">
<title>[root] azurerm_subnet.terraform_demo_subnet (expand)&#45;&gt;[root] azurerm_virtual_network.terraform_demo_vnet (expand)</title>
<path fill="none" stroke="black" d="M1780.3,-215.7C1783.56,-207.81 1787.5,-198.3 1791.13,-189.55"/>
<polygon fill="black" stroke="black" points="1794.45,-190.68 1795.04,-180.1 1787.98,-188 1794.45,-190.68"/>
</g>
<!-- [root] azurerm_virtual_network.terraform_demo_vnet (expand)&#45;&gt;[root] azurerm_resource_group.terraform_demo_resource_group (expand) -->
<g id="edge19" class="edge">
<title>[root] azurerm_virtual_network.terraform_demo_vnet (expand)&#45;&gt;[root] azurerm_resource_group.terraform_demo_resource_group (expand)</title>
<path fill="none" stroke="black" d="M1690.43,-143.97C1622.27,-133.57 1535.08,-120.27 1465.12,-109.6"/>
<polygon fill="black" stroke="black" points="1465.34,-106.1 1454.93,-108.05 1464.29,-113.02 1465.34,-106.1"/>
</g>
<!-- [root] data.azurerm_dns_zone.terraform_demo_dns_zone (expand)&#45;&gt;[root] provider[&quot;registry.terraform.io/hashicorp/azurerm&quot;] -->
<g id="edge20" class="edge">
<title>[root] data.azurerm_dns_zone.terraform_demo_dns_zone (expand)&#45;&gt;[root] provider[&quot;registry.terraform.io/hashicorp/azurerm&quot;]</title>
<path fill="none" stroke="black" d="M930.48,-71.97C976.44,-60.68 1036.32,-45.97 1081.31,-34.92"/>
<polygon fill="black" stroke="black" points="1082.38,-38.26 1091.25,-32.48 1080.71,-31.46 1082.38,-38.26"/>
</g>
<!-- [root] data.azurerm_role_definition.contributor (expand)&#45;&gt;[root] provider[&quot;registry.terraform.io/hashicorp/azurerm&quot;] -->
<g id="edge21" class="edge">
<title>[root] data.azurerm_role_definition.contributor (expand)&#45;&gt;[root] provider[&quot;registry.terraform.io/hashicorp/azurerm&quot;]</title>
<path fill="none" stroke="black" d="M1996.9,-73.39C1992.25,-72.9 1987.65,-72.43 1983.13,-72 1916.48,-65.64 1513.57,-41.06 1291.97,-27.73"/>
<polygon fill="black" stroke="black" points="1292.07,-24.23 1281.88,-27.12 1291.65,-31.21 1292.07,-24.23"/>
</g>
<!-- [root] data.azurerm_subnet.example (expand) -->
<g id="node14" class="node">
<title>[root] data.azurerm_subnet.example (expand)</title>
<polygon fill="none" stroke="black" points="645.63,-468 466.63,-468 466.63,-432 645.63,-432 645.63,-468"/>
<text text-anchor="middle" x="556.13" y="-446.3" font-family="Times,serif" font-size="14.00">data.azurerm_subnet.example</text>
</g>
<!-- [root] data.azurerm_subnet.example (expand)&#45;&gt;[root] provider[&quot;registry.terraform.io/hashicorp/azurerm&quot;] -->
<g id="edge22" class="edge">
<title>[root] data.azurerm_subnet.example (expand)&#45;&gt;[root] provider[&quot;registry.terraform.io/hashicorp/azurerm&quot;]</title>
<path fill="none" stroke="black" d="M546.6,-431.66C533.12,-405.47 510.13,-353.9 510.13,-307 510.13,-307 510.13,-307 510.13,-161 510.13,-68.33 770.57,-36.12 958.13,-24.93"/>
<polygon fill="black" stroke="black" points="958.34,-28.42 968.12,-24.35 957.94,-21.43 958.34,-28.42"/>
</g>
<!-- [root] data.azurerm_subscription.current (expand)&#45;&gt;[root] provider[&quot;registry.terraform.io/hashicorp/azurerm&quot;] -->
<g id="edge23" class="edge">
<title>[root] data.azurerm_subscription.current (expand)&#45;&gt;[root] provider[&quot;registry.terraform.io/hashicorp/azurerm&quot;]</title>
<path fill="none" stroke="black" d="M1926.91,-359.56C1934.99,-349.76 1944.32,-336.92 1950.13,-324 1966.71,-287.11 1969.13,-275.45 1969.13,-235 1969.13,-235 1969.13,-235 1969.13,-161 1969.13,-92.07 1514.96,-47.19 1281.39,-28.66"/>
<polygon fill="black" stroke="black" points="1281.37,-25.15 1271.12,-27.86 1280.82,-32.13 1281.37,-25.15"/>
</g>
<!-- [root] output.tls_private_key -->
<g id="node16" class="node">
<title>[root] output.tls_private_key</title>
<polygon fill="none" stroke="black" points="2227.63,-396 2096.63,-396 2096.63,-360 2233.63,-360 2233.63,-390 2227.63,-396"/>
<polyline fill="none" stroke="black" points="2227.63,-396 2227.63,-390 "/>
<polyline fill="none" stroke="black" points="2233.63,-390 2227.63,-390 "/>
<text text-anchor="middle" x="2165.13" y="-374.3" font-family="Times,serif" font-size="14.00">output.tls_private_key</text>
</g>
<!-- [root] output.tls_private_key&#45;&gt;[root] tls_private_key.terraform_demo_ssh_key (expand) -->
<g id="edge31" class="edge">
<title>[root] output.tls_private_key&#45;&gt;[root] tls_private_key.terraform_demo_ssh_key (expand)</title>
<path fill="none" stroke="black" d="M2180.21,-359.7C2187.52,-351.3 2196.44,-341.07 2204.46,-331.86"/>
<polygon fill="black" stroke="black" points="2207.29,-333.94 2211.22,-324.1 2202.01,-329.34 2207.29,-333.94"/>
</g>
<!-- [root] provider[&quot;registry.terraform.io/hashicorp/random&quot;] -->
<g id="node18" class="node">
<title>[root] provider[&quot;registry.terraform.io/hashicorp/random&quot;]</title>
<polygon fill="none" stroke="black" points="886.13,-180 613.99,-162 886.13,-144 1158.27,-162 886.13,-180"/>
<text text-anchor="middle" x="886.13" y="-158.3" font-family="Times,serif" font-size="14.00">provider[&quot;registry.terraform.io/hashicorp/random&quot;]</text>
</g>
<!-- [root] provider[&quot;registry.terraform.io/hashicorp/tls&quot;] -->
<g id="node19" class="node">
<title>[root] provider[&quot;registry.terraform.io/hashicorp/tls&quot;]</title>
<polygon fill="none" stroke="black" points="2312.13,-252 2067.64,-234 2312.13,-216 2556.62,-234 2312.13,-252"/>
<text text-anchor="middle" x="2312.13" y="-230.3" font-family="Times,serif" font-size="14.00">provider[&quot;registry.terraform.io/hashicorp/tls&quot;]</text>
</g>
<!-- [root] random_id.randomId (expand)&#45;&gt;[root] azurerm_resource_group.terraform_demo_resource_group (expand) -->
<g id="edge38" class="edge">
<title>[root] random_id.randomId (expand)&#45;&gt;[root] azurerm_resource_group.terraform_demo_resource_group (expand)</title>
<path fill="none" stroke="black" d="M649.56,-215.96C632.2,-207.96 615.24,-196.43 605.13,-180 596.74,-166.37 594.23,-155.71 605.13,-144 614.61,-133.81 949.74,-113.11 1165.08,-100.82"/>
<polygon fill="black" stroke="black" points="1165.45,-104.3 1175.24,-100.24 1165.06,-97.31 1165.45,-104.3"/>
</g>
<!-- [root] random_id.randomId (expand)&#45;&gt;[root] provider[&quot;registry.terraform.io/hashicorp/random&quot;] -->
<g id="edge39" class="edge">
<title>[root] random_id.randomId (expand)&#45;&gt;[root] provider[&quot;registry.terraform.io/hashicorp/random&quot;]</title>
<path fill="none" stroke="black" d="M753.18,-215.88C779.47,-205.42 813.06,-192.06 839.91,-181.38"/>
<polygon fill="black" stroke="black" points="841.47,-184.53 849.47,-177.58 838.88,-178.03 841.47,-184.53"/>
</g>
<!-- [root] tls_private_key.terraform_demo_ssh_key (expand)&#45;&gt;[root] provider[&quot;registry.terraform.io/hashicorp/tls&quot;] -->
<g id="edge44" class="edge">
<title>[root] tls_private_key.terraform_demo_ssh_key (expand)&#45;&gt;[root] provider[&quot;registry.terraform.io/hashicorp/tls&quot;]</title>
<path fill="none" stroke="black" d="M2247.39,-287.7C2258.7,-278.49 2272.74,-267.06 2284.86,-257.2"/>
<polygon fill="black" stroke="black" points="2287.33,-259.7 2292.88,-250.67 2282.91,-254.27 2287.33,-259.7"/>
</g>
<!-- [root] var.resource_suffix -->
<g id="node22" class="node">
<title>[root] var.resource_suffix</title>
<polygon fill="none" stroke="black" points="1923.63,-468 1810.63,-468 1810.63,-432 1929.63,-432 1929.63,-462 1923.63,-468"/>
<polyline fill="none" stroke="black" points="1923.63,-468 1923.63,-462 "/>
<polyline fill="none" stroke="black" points="1929.63,-462 1923.63,-462 "/>
<text text-anchor="middle" x="1870.13" y="-446.3" font-family="Times,serif" font-size="14.00">var.resource_suffix</text>
</g>
<!-- [root] meta.count&#45;boundary (EachMode fixup) -->
<g id="node24" class="node">
<title>[root] meta.count&#45;boundary (EachMode fixup)</title>
<ellipse fill="none" stroke="black" cx="1638.13" cy="-522" rx="174.67" ry="18"/>
<text text-anchor="middle" x="1638.13" y="-518.3" font-family="Times,serif" font-size="14.00">[root] meta.count&#45;boundary (EachMode fixup)</text>
</g>
<!-- [root] meta.count&#45;boundary (EachMode fixup)&#45;&gt;[root] azurerm_dns_a_record.terraform_demo_dns_record (expand) -->
<g id="edge24" class="edge">
<title>[root] meta.count&#45;boundary (EachMode fixup)&#45;&gt;[root] azurerm_dns_a_record.terraform_demo_dns_record (expand)</title>
<path fill="none" stroke="black" d="M1514.44,-509.27C1494.28,-507.45 1473.63,-505.63 1454.13,-504 1243.73,-486.41 1188.29,-487.36 974.32,-468.09"/>
<polygon fill="black" stroke="black" points="974.61,-464.6 964.34,-467.19 973.98,-471.58 974.61,-464.6"/>
</g>
<!-- [root] meta.count&#45;boundary (EachMode fixup)&#45;&gt;[root] azurerm_network_interface_security_group_association.terraform_demo_sg_nic_link (expand) -->
<g id="edge25" class="edge">
<title>[root] meta.count&#45;boundary (EachMode fixup)&#45;&gt;[root] azurerm_network_interface_security_group_association.terraform_demo_sg_nic_link (expand)</title>
<path fill="none" stroke="black" d="M1551.34,-506.33C1488.4,-495.68 1402.77,-481.21 1334.9,-469.73"/>
<polygon fill="black" stroke="black" points="1335.46,-466.27 1325.02,-468.06 1334.3,-473.18 1335.46,-466.27"/>
</g>
<!-- [root] meta.count&#45;boundary (EachMode fixup)&#45;&gt;[root] azurerm_role_assignment.terraform_role_assignment (expand) -->
<g id="edge26" class="edge">
<title>[root] meta.count&#45;boundary (EachMode fixup)&#45;&gt;[root] azurerm_role_assignment.terraform_role_assignment (expand)</title>
<path fill="none" stroke="black" d="M1638.13,-503.7C1638.13,-495.98 1638.13,-486.71 1638.13,-478.11"/>
<polygon fill="black" stroke="black" points="1641.63,-478.1 1638.13,-468.1 1634.63,-478.1 1641.63,-478.1"/>
</g>
<!-- [root] meta.count&#45;boundary (EachMode fixup)&#45;&gt;[root] data.azurerm_subnet.example (expand) -->
<g id="edge27" class="edge">
<title>[root] meta.count&#45;boundary (EachMode fixup)&#45;&gt;[root] data.azurerm_subnet.example (expand)</title>
<path fill="none" stroke="black" d="M1516.95,-508.99C1496.01,-507.15 1474.45,-505.4 1454.13,-504 1102.78,-479.87 1010.26,-505.67 655.67,-467.96"/>
<polygon fill="black" stroke="black" points="655.95,-464.47 645.64,-466.89 655.21,-471.43 655.95,-464.47"/>
</g>
<!-- [root] meta.count&#45;boundary (EachMode fixup)&#45;&gt;[root] output.tls_private_key -->
<g id="edge29" class="edge">
<title>[root] meta.count&#45;boundary (EachMode fixup)&#45;&gt;[root] output.tls_private_key</title>
<path fill="none" stroke="black" d="M1780.95,-511.6C1935.24,-500.75 2160.97,-482.52 2174.13,-468 2189.2,-451.36 2184.38,-425.13 2177.33,-405.45"/>
<polygon fill="black" stroke="black" points="2180.57,-404.13 2173.65,-396.11 2174.06,-406.7 2180.57,-404.13"/>
</g>
<!-- [root] meta.count&#45;boundary (EachMode fixup)&#45;&gt;[root] var.resource_suffix -->
<g id="edge30" class="edge">
<title>[root] meta.count&#45;boundary (EachMode fixup)&#45;&gt;[root] var.resource_suffix</title>
<path fill="none" stroke="black" d="M1691.65,-504.85C1725.04,-494.78 1768.28,-481.73 1803.83,-471"/>
<polygon fill="black" stroke="black" points="1805.08,-474.28 1813.64,-468.04 1803.06,-467.58 1805.08,-474.28"/>
</g>
<!-- [root] local.owner (expand) -->
<g id="node25" class="node">
<title>[root] local.owner (expand)</title>
<ellipse fill="none" stroke="black" cx="2056.13" cy="-450" rx="108.58" ry="18"/>
<text text-anchor="middle" x="2056.13" y="-446.3" font-family="Times,serif" font-size="14.00">[root] local.owner (expand)</text>
</g>
<!-- [root] meta.count&#45;boundary (EachMode fixup)&#45;&gt;[root] local.owner (expand) -->
<g id="edge28" class="edge">
<title>[root] meta.count&#45;boundary (EachMode fixup)&#45;&gt;[root] local.owner (expand)</title>
<path fill="none" stroke="black" d="M1725.5,-506.37C1798.3,-494.18 1901.3,-476.93 1972.92,-464.93"/>
<polygon fill="black" stroke="black" points="1973.53,-468.38 1982.81,-463.28 1972.37,-461.48 1973.53,-468.38"/>
</g>
<!-- [root] provider[&quot;registry.terraform.io/hashicorp/azurerm&quot;] (close) -->
<g id="node26" class="node">
<title>[root] provider[&quot;registry.terraform.io/hashicorp/azurerm&quot;] (close)</title>
<ellipse fill="none" stroke="black" cx="1202.13" cy="-522" rx="243.16" ry="18"/>
<text text-anchor="middle" x="1202.13" y="-518.3" font-family="Times,serif" font-size="14.00">[root] provider[&quot;registry.terraform.io/hashicorp/azurerm&quot;] (close)</text>
</g>
<!-- [root] provider[&quot;registry.terraform.io/hashicorp/azurerm&quot;] (close)&#45;&gt;[root] azurerm_dns_a_record.terraform_demo_dns_record (expand) -->
<g id="edge32" class="edge">
<title>[root] provider[&quot;registry.terraform.io/hashicorp/azurerm&quot;] (close)&#45;&gt;[root] azurerm_dns_a_record.terraform_demo_dns_record (expand)</title>
<path fill="none" stroke="black" d="M1114.57,-505.2C1056.45,-494.72 979.88,-480.9 918.58,-469.84"/>
<polygon fill="black" stroke="black" points="918.95,-466.35 908.49,-468.02 917.71,-473.24 918.95,-466.35"/>
</g>
<!-- [root] provider[&quot;registry.terraform.io/hashicorp/azurerm&quot;] (close)&#45;&gt;[root] azurerm_network_interface_security_group_association.terraform_demo_sg_nic_link (expand) -->
<g id="edge33" class="edge">
<title>[root] provider[&quot;registry.terraform.io/hashicorp/azurerm&quot;] (close)&#45;&gt;[root] azurerm_network_interface_security_group_association.terraform_demo_sg_nic_link (expand)</title>
<path fill="none" stroke="black" d="M1207.57,-503.7C1210.02,-495.9 1212.97,-486.51 1215.7,-477.83"/>
<polygon fill="black" stroke="black" points="1219.09,-478.69 1218.75,-468.1 1212.42,-476.59 1219.09,-478.69"/>
</g>
<!-- [root] provider[&quot;registry.terraform.io/hashicorp/azurerm&quot;] (close)&#45;&gt;[root] azurerm_role_assignment.terraform_role_assignment (expand) -->
<g id="edge34" class="edge">
<title>[root] provider[&quot;registry.terraform.io/hashicorp/azurerm&quot;] (close)&#45;&gt;[root] azurerm_role_assignment.terraform_role_assignment (expand)</title>
<path fill="none" stroke="black" d="M1298.89,-505.46C1364.77,-494.89 1452.3,-480.83 1521.95,-469.65"/>
<polygon fill="black" stroke="black" points="1522.78,-473.06 1532.09,-468.02 1521.67,-466.15 1522.78,-473.06"/>
</g>
<!-- [root] provider[&quot;registry.terraform.io/hashicorp/azurerm&quot;] (close)&#45;&gt;[root] data.azurerm_subnet.example (expand) -->
<g id="edge35" class="edge">
<title>[root] provider[&quot;registry.terraform.io/hashicorp/azurerm&quot;] (close)&#45;&gt;[root] data.azurerm_subnet.example (expand)</title>
<path fill="none" stroke="black" d="M1040.81,-508.5C934.35,-499.51 791.61,-486.02 655.84,-468.04"/>
<polygon fill="black" stroke="black" points="656.04,-464.53 645.66,-466.68 655.11,-471.47 656.04,-464.53"/>
</g>
<!-- [root] provider[&quot;registry.terraform.io/hashicorp/random&quot;] (close) -->
<g id="node27" class="node">
<title>[root] provider[&quot;registry.terraform.io/hashicorp/random&quot;] (close)</title>
<ellipse fill="none" stroke="black" cx="241.13" cy="-306" rx="241.26" ry="18"/>
<text text-anchor="middle" x="241.13" y="-302.3" font-family="Times,serif" font-size="14.00">[root] provider[&quot;registry.terraform.io/hashicorp/random&quot;] (close)</text>
</g>
<!-- [root] provider[&quot;registry.terraform.io/hashicorp/random&quot;] (close)&#45;&gt;[root] random_id.randomId (expand) -->
<g id="edge36" class="edge">
<title>[root] provider[&quot;registry.terraform.io/hashicorp/random&quot;] (close)&#45;&gt;[root] random_id.randomId (expand)</title>
<path fill="none" stroke="black" d="M343.76,-289.68C430.97,-276.67 554.22,-258.27 633.16,-246.49"/>
<polygon fill="black" stroke="black" points="634.15,-249.88 643.52,-244.94 633.11,-242.96 634.15,-249.88"/>
</g>
<!-- [root] provider[&quot;registry.terraform.io/hashicorp/tls&quot;] (close) -->
<g id="node28" class="node">
<title>[root] provider[&quot;registry.terraform.io/hashicorp/tls&quot;] (close)</title>
<ellipse fill="none" stroke="black" cx="2143.13" cy="-522" rx="221.76" ry="18"/>
<text text-anchor="middle" x="2143.13" y="-518.3" font-family="Times,serif" font-size="14.00">[root] provider[&quot;registry.terraform.io/hashicorp/tls&quot;] (close)</text>
</g>
<!-- [root] provider[&quot;registry.terraform.io/hashicorp/tls&quot;] (close)&#45;&gt;[root] tls_private_key.terraform_demo_ssh_key (expand) -->
<g id="edge37" class="edge">
<title>[root] provider[&quot;registry.terraform.io/hashicorp/tls&quot;] (close)&#45;&gt;[root] tls_private_key.terraform_demo_ssh_key (expand)</title>
<path fill="none" stroke="black" d="M2164.11,-503.79C2188.94,-481.84 2228.72,-441.28 2243.13,-396 2249.66,-375.48 2244.34,-351.46 2237.99,-333.54"/>
<polygon fill="black" stroke="black" points="2241.18,-332.1 2234.31,-324.03 2234.65,-334.62 2241.18,-332.1"/>
</g>
<!-- [root] root -->
<g id="node29" class="node">
<title>[root] root</title>
<ellipse fill="none" stroke="black" cx="1420.13" cy="-594" rx="47.39" ry="18"/>
<text text-anchor="middle" x="1420.13" y="-590.3" font-family="Times,serif" font-size="14.00">[root] root</text>
</g>
<!-- [root] root&#45;&gt;[root] meta.count&#45;boundary (EachMode fixup) -->
<g id="edge40" class="edge">
<title>[root] root&#45;&gt;[root] meta.count&#45;boundary (EachMode fixup)</title>
<path fill="none" stroke="black" d="M1455.15,-581.75C1488.11,-571.17 1538.14,-555.11 1577.56,-542.45"/>
<polygon fill="black" stroke="black" points="1578.89,-545.7 1587.34,-539.31 1576.75,-539.03 1578.89,-545.7"/>
</g>
<!-- [root] root&#45;&gt;[root] provider[&quot;registry.terraform.io/hashicorp/azurerm&quot;] (close) -->
<g id="edge41" class="edge">
<title>[root] root&#45;&gt;[root] provider[&quot;registry.terraform.io/hashicorp/azurerm&quot;] (close)</title>
<path fill="none" stroke="black" d="M1385.1,-581.75C1352.48,-571.28 1303.12,-555.43 1263.89,-542.83"/>
<polygon fill="black" stroke="black" points="1264.74,-539.43 1254.15,-539.7 1262.6,-546.09 1264.74,-539.43"/>
</g>
<!-- [root] root&#45;&gt;[root] provider[&quot;registry.terraform.io/hashicorp/random&quot;] (close) -->
<g id="edge42" class="edge">
<title>[root] root&#45;&gt;[root] provider[&quot;registry.terraform.io/hashicorp/random&quot;] (close)</title>
<path fill="none" stroke="black" d="M1373.7,-590.19C1205.19,-579.48 626.8,-538.3 457.13,-468 378.47,-435.41 302.45,-367.75 265.1,-331.38"/>
<polygon fill="black" stroke="black" points="267.3,-328.65 257.72,-324.12 262.39,-333.63 267.3,-328.65"/>
</g>
<!-- [root] root&#45;&gt;[root] provider[&quot;registry.terraform.io/hashicorp/tls&quot;] (close) -->
<g id="edge43" class="edge">
<title>[root] root&#45;&gt;[root] provider[&quot;registry.terraform.io/hashicorp/tls&quot;] (close)</title>
<path fill="none" stroke="black" d="M1465.63,-588.59C1570.01,-578.49 1830.42,-553.28 1996.29,-537.22"/>
<polygon fill="black" stroke="black" points="1996.97,-540.67 2006.59,-536.22 1996.3,-533.7 1996.97,-540.67"/>
</g>
</g>
</svg>
